<?xml version="1.0" encoding="utf-8"?>
<!-- Generator: Adobe Illustrator 22.1.0, SVG Export Plug-In . SVG Version: 6.00 Build 0)  -->
<svg version="1.1" id="Capa_1" xmlns="http://www.w3.org/2000/svg" xmlns:xlink="http://www.w3.org/1999/xlink" x="0px" y="0px"
	 viewBox="0 0 977.5 231" style="enable-background:new 0 0 977.5 231;" xml:space="preserve">
<style type="text/css">
	.st0{fill:#FFFFFF;}
</style>
<title>pascal horizontal</title>
<g id="Capa_2_1_">
	<g id="Capa_2-2">
		<g>
			<path class="st0" d="M120,84.5C55.9,64.4,62.2,0,62.2,0C45.9,57.4,86.8,86,86.8,86s-4.3,42.9,21.4,64.7c0,0,33.8,33,80.2,0
				C184.4,95,120,84.5,120,84.5z M157.4,161.3c-60.3,16.5-57.7-66.8-57.7-66.8s14.2,7.3,24.9,8.4c0,0,15.5,1.8,25.7,8.1
				c0,0-25.4-2.6-37,0c0,0-2.6,22,16,35.1c0,0,27,14.7,44.8-19.4l8.4,10.2C171.9,151.6,165.9,159,157.4,161.3L157.4,161.3z"/>
			<path class="st0" d="M222.1,110.5c0.5,3.8,0.8,7.6,0.8,11.4L240,98.1c-1.4-5.5-3.3-10.8-5.6-16l-13.7,21
				C221.3,105.5,221.8,108,222.1,110.5z"/>
			<path class="st0" d="M99.1,45.9c9.7-5.3,20.3-8.7,31.2-10.2c21.8-3.3,43.9,3.2,60.4,17.6c8,6.9,14.7,15,20,24.1l8.6-20.2
				c-4.7-5.9-10-11.3-15.8-16.1c-10.4-8.8-22.6-15.2-35.6-19c-6.9-2-14-3.1-21.1-3.5c-16-0.9-32,1.4-47.2,6.8
				c-8,2.8-15.7,6.6-22.9,11.2l0,0l9.4,18.1C90.1,51.4,94.5,48.5,99.1,45.9z"/>
			<path class="st0" d="M219.7,144.4c-1.1,3.9-2.6,7.7-4.3,11.4l26.3-12.8c1.4-7,2.1-14.2,1.9-21.3c-11.8,10-18.6,15.2-22.6,17.9
				C220.6,141.2,220.1,142.8,219.7,144.4z"/>
			<path class="st0" d="M203.4,174.6c-7.3,8.5-16.1,15.6-26,21c-9.7,5.3-20.2,8.8-31.2,10.2c-21.7,3-43.7-3.5-60.4-17.6
				c-8.5-7-15.5-15.7-20.8-25.4c-5.3-9.9-8.8-20.6-10.4-31.7c-2.6-18.7,1.4-37.8,11.3-54c-4.6-6.9-8.4-14.3-11.3-22.1
				c-3.5,4.7-6.4,9.8-8.6,15.3C30.9,107.8,0,225.1,0,225.1l20.2,5.9l20-70.7c3.6,7.7,8.1,14.9,13.4,21.5
				c5.1,6.4,10.9,12.3,17.1,17.6c5.9,5,12.4,9.5,19.2,13.3c6.3,3.5,12.9,6.4,19.8,8.4c13.1,3.9,26.8,5,40.3,3.2
				c13.4-1.7,26.4-5.7,38.4-11.9s22.7-14.7,31.6-24.9c5-5.8,9.4-12.2,12.9-19c-9.2,2.1-18.5,3.5-27.9,4.2
				C204.5,173.3,204,173.9,203.4,174.6z"/>
		</g>
		<g>
			<path class="st0" d="M298.1,44.6c3.3-3.6,7-6.9,11-9.7c7.6-5.3,16.2-9.1,25.2-11.1c11.8-2.7,24.2-1.6,35.4,3.2
				c7.2,3,13.8,7.3,19.4,12.7c5.6,5.3,10.2,11.6,13.5,18.6c3.4,7.1,5.1,14.8,5.1,22.6c0,7.9-1.7,15.7-5.1,22.9
				c-3.3,7-7.9,13.3-13.6,18.5c-5.7,5.3-12.3,9.5-19.5,12.6c-7.3,3.1-15.1,4.7-23.1,4.7c-4.2,0-8.3-0.5-12.4-1.4
				c-4.4-1-8.7-2.4-12.9-4.2c-4.3-1.9-8.5-4.2-12.4-6.8c-4-2.7-7.8-5.9-11-9.6v89.8h-12.3v-136C285.6,71.4,289.6,52.6,298.1,44.6z
				 M346.5,127.2c6.2,0,12.4-1.3,18.2-3.7c5.8-2.3,11-5.7,15.6-9.9c4.6-4.2,8.3-9.2,11-14.7c5.5-11.3,5.5-24.5,0-35.8
				c-2.7-5.6-6.4-10.6-11-14.7c-4.6-4.2-9.9-7.5-15.6-9.9c-11.6-5-24.7-5-36.3,0c-5.8,2.4-11,5.7-15.6,9.9
				c-4.5,4.2-8.2,9.2-10.9,14.7c-5.5,11.3-5.5,24.5,0,35.8c2.7,5.5,6.4,10.5,10.9,14.7c4.5,4.3,9.8,7.6,15.6,9.9
				C334.2,125.9,340.3,127.1,346.5,127.2z"/>
			<path class="st0" d="M481.4,140.8c-7.8,0-15.5-1.6-22.7-4.7c-7.1-3.1-13.5-7.4-19.1-12.7c-5.6-5.3-10.1-11.7-13.2-18.7
				c-3.3-7.3-5-15.1-4.9-23.1c0-7.9,1.6-15.7,4.9-22.8c3.2-7.1,7.7-13.5,13.2-18.9s12-9.8,19.1-12.9c7.2-3.1,14.9-4.7,22.7-4.7
				c4.1,0,8.2,0.5,12.2,1.5c9,2.1,17.4,5.9,24.9,11.2c4,2.8,7.7,6.1,10.9,9.8V22.3h12.2v119.2h-12.2v-23c-3.2,3.7-6.9,6.9-10.9,9.7
				c-3.9,2.7-8,5-12.3,6.9c-4.1,1.8-8.3,3.2-12.6,4.2C489.6,140.3,485.5,140.7,481.4,140.8z M481.4,34.8c-6.1,0-12.2,1.2-17.8,3.7
				c-5.7,2.4-10.9,5.8-15.4,10s-8.1,9.3-10.7,14.9c-5.3,11.5-5.3,24.7,0,36.1c2.6,5.6,6.2,10.6,10.7,14.9c4.4,4.3,9.7,7.7,15.4,10
				c5.6,2.4,11.7,3.7,17.8,3.7c6.2,0,12.3-1.3,18.1-3.7c11.5-4.8,20.7-13.7,26-24.9c5.3-11.5,5.3-24.7,0-36.1
				c-2.6-5.6-6.2-10.6-10.7-14.9c-4.5-4.2-9.7-7.6-15.3-10C493.7,36.1,487.6,34.8,481.4,34.8z"/>
			<path class="st0" d="M834.6,140.8c-7.8,0-15.6-1.6-22.7-4.7c-7.1-3.1-13.5-7.4-19.1-12.7c-5.6-5.3-10.1-11.7-13.3-18.7
				c-3.3-7.3-5-15.1-4.9-23.1c0-7.9,1.6-15.7,4.9-22.8c3.2-7.1,7.7-13.5,13.3-18.9c5.5-5.4,12-9.8,19.1-12.9
				c7.2-3.1,14.9-4.7,22.7-4.7c4.1,0,8.2,0.5,12.2,1.5c9,2.1,17.5,5.9,25,11.2c4,2.8,7.7,6.1,10.9,9.8V22.3h12.2v119.2h-12.2v-23
				c-3.2,3.7-6.9,6.9-10.9,9.7c-3.9,2.7-8,5-12.3,6.9c-4.1,1.8-8.3,3.2-12.7,4.2C842.8,140.2,838.7,140.7,834.6,140.8z M834.6,34.8
				c-6.1,0-12.2,1.2-17.8,3.7c-5.7,2.4-10.9,5.8-15.4,10s-8.1,9.3-10.6,14.9c-5.3,11.5-5.3,24.7,0,36.1c5.2,11.3,14.5,20.2,26,24.9
				c5.6,2.4,11.7,3.7,17.8,3.7c6.2,0,12.3-1.3,18-3.7c5.7-2.4,10.9-5.8,15.4-10c4.4-4.3,8-9.3,10.7-14.9c5.3-11.5,5.3-24.7,0-36.1
				c-2.6-5.6-6.2-10.6-10.7-14.9c-4.5-4.2-9.7-7.6-15.4-10C847,36.1,840.8,34.8,834.6,34.8z"/>
			<path class="st0" d="M756.5,37c-5.8-4.6-12.3-8.1-19.3-10.6c-7.1-2.6-14.7-3.9-22.3-3.8c-9-0.2-17.9,1.4-26.3,4.7
				c-14.2,5.6-25.3,17.1-30.3,31.6c-2.6,7.3-3.8,15-3.8,22.8c-0.1,7.9,1.3,15.7,4,23c2.6,7,6.7,13.4,11.9,18.7
				c5.6,5.5,12.2,9.8,19.4,12.6c8.4,3.3,17.4,4.9,26.4,4.7c6.8,0,13.6-1.1,20.1-3.3c6.4-2.2,12.4-5.5,17.6-9.8
				c5.5-4.6,10.1-10.1,13.7-16.4c0.1-0.1,0.1-0.2,0.2-0.3l-9.4-6.4c-0.2,0.4-0.4,0.7-0.6,1.1c-2.6,4.7-6.1,8.8-10.2,12.2
				c-4.2,3.4-9.1,6-14.3,7.7c-5.6,1.8-11.4,2.7-17.3,2.6c-7.1,0.1-14.2-1.1-20.9-3.7c-11.5-4.3-20.5-13.4-24.9-24.8
				c-2.2-5.8-3.3-11.9-3.3-18.1c0-6.1,1-12.2,2.9-17.9c1.8-5.5,4.8-10.6,8.8-14.8c4.1-4.3,9.2-7.7,14.7-10
				c6.7-2.6,13.9-3.9,21.1-3.7c5.9,0,11.7,0.8,17.3,2.5c5.4,1.6,10.4,4.1,14.9,7.5s8.3,7.6,11.2,12.4l10.8-7.1
				C765.5,45.4,761.3,40.8,756.5,37z"/>
			<polygon class="st0" points="914.7,22.3 925.7,22.3 925.7,130 977.5,130 977.5,140.6 914.7,140.6 			"/>
			<path class="st0" d="M641.7,86.6c-9.5-12.7-44.9-19.1-46.4-19.4c-22.1-3.5-22.7-11.3-22.7-11.4v-0.2v-0.2
				c-3.5-15.4,8.1-20,8.6-20.2c5.3-2.2,10.9-3.3,16.5-3.3c3.7,0.1,7.4,0.5,11,1.3l1.2,0.2c8.4,1.3,14.8,8.1,15.7,16.5
				c0.2,2.5,0.3,10.3,0.3,10.3v1.5H639v-1.4c0-0.4,0.3-9.4,0-12.6c-0.3-5-4.1-22.2-33.3-26.7c-3.3-0.4-6.6-0.6-9.9-0.6
				c-3.9,0-7.8,0.2-11.7,0.6c-13.1,2-23.6,12.3-25.7,25.5c-0.6,4.2-0.3,8.5,0.8,12.6c1.6,7.4,7,12.2,18.2,16.4
				c0.3,0,30.9,7.4,40.8,10.7c7.8,2.6,16.9,8,16.1,18.4v0.2v0.2c0,0.1,2.4,13.9-13.9,20.7c-6.6,2.5-13.5,3.8-20.6,3.8
				c-8.7,0-24.4-2.1-32.6-16.1c0,0-4-5.9-4-20.1v-1.4l-11.9-0.6l-0.1,1.4c0,0.6-0.9,13.5,2.2,22.1c0,0.2,7.7,22.8,32.8,25.5
				c4.7,0.7,9.4,1,14.1,1c11.8,0,27.8-2.2,36.3-12.3C637,128.6,658.8,109.3,641.7,86.6z"/>
			<path class="st0" d="M368.7,170.8l-3.7,2.8c-1.9-2.6-4.5-4.7-7.4-6.1c-3-1.4-6.2-2.1-9.5-2.1c-3.7,0-7.3,0.9-10.4,2.7
				c-3.1,1.7-5.7,4.3-7.4,7.4c-1.8,3.1-2.7,6.7-2.6,10.3c-0.1,5.4,2,10.6,5.9,14.4c4,3.9,9.4,5.9,14.9,5.8
				c6.4,0.1,12.5-2.8,16.5-7.8l3.7,2.8c-2.3,3-5.4,5.4-8.8,6.9c-3.7,1.7-7.7,2.5-11.8,2.4c-8.2,0-14.7-2.7-19.5-8.2
				c-4-4.7-6.1-10.6-6-16.8c-0.1-6.6,2.5-12.9,7.3-17.4c4.8-4.7,11.4-7.3,18.2-7.1c4.1-0.1,8.2,0.8,11.9,2.6
				C363.5,165.2,366.5,167.7,368.7,170.8z"/>
			<path class="st0" d="M376.5,162.1h27v4.6h-22.3v14.7h22.1v4.6h-22.1v18.6h22.1v4.6h-26.8L376.5,162.1L376.5,162.1z"/>
			<path class="st0" d="M410.1,209.2v-47.1h1l31.4,36.1v-36.1h4.6v47.1h-1L415,173.5v35.7H410.1z"/>
			<path class="st0" d="M452.3,166.7v-4.6h25.8v4.6h-10.5v42.5h-4.8v-42.5H452.3z"/>
			<path class="st0" d="M483.5,162.1h9.4c3.6-0.1,7.1,0.1,10.6,0.6c2.7,0.6,5.1,2,6.8,4.1c1.8,2.2,2.7,5,2.6,7.8
				c0,2.4-0.6,4.7-1.8,6.8c-1.2,2-3,3.5-5.2,4.4c-3,1.1-6.1,1.6-9.3,1.5l16.9,21.9h-5.8l-16.9-21.9h-2.7v21.9h-4.7v-47.1H483.5z
				 M488.2,166.7v16h8.1c2.4,0.1,4.7-0.2,7-0.9c1.4-0.6,2.7-1.6,3.5-2.9c0.8-1.3,1.3-2.8,1.3-4.4c0-1.5-0.4-3-1.3-4.3
				c-0.8-1.3-2-2.2-3.4-2.8c-2.2-0.7-4.6-0.9-6.9-0.8L488.2,166.7z"/>
			<path class="st0" d="M543.8,160.9c6.7-0.2,13.2,2.4,17.9,7.1c9.7,9.7,9.7,25.5,0,35.2s-25.5,9.7-35.2,0
				c-4.7-4.5-7.3-10.8-7.2-17.4c0-4.4,1.1-8.8,3.3-12.6C526.9,165.6,535.1,160.8,543.8,160.9L543.8,160.9z M544,165.5
				c-3.5,0-7,0.9-10,2.7c-3.1,1.8-5.6,4.3-7.4,7.4c-1.8,3.1-2.7,6.7-2.6,10.3c-0.1,11,8.8,19.9,19.7,20h0.1c3.6,0,7.1-0.9,10.1-2.7
				c3.1-1.7,5.6-4.3,7.4-7.4c1.8-3.1,2.7-6.7,2.6-10.3c0-3.6-0.9-7.1-2.6-10.1c-1.7-3.1-4.3-5.6-7.4-7.4
				C551,166.3,547.6,165.4,544,165.5z"/>
			<path class="st0" d="M593.3,209.2v-47.1h9.8c5.2-0.2,10.4,0.3,15.4,1.7c4.4,1.5,8.2,4.4,10.7,8.3c2.6,4.2,4,9.1,3.8,14.1
				c0.1,4.4-1,8.6-3.1,12.5c-1.8,3.4-4.6,6.1-7.9,7.9c-4.3,1.9-9,2.8-13.7,2.6L593.3,209.2z M597.8,204.7h5.5
				c4.6,0.2,9.1-0.2,13.5-1.2c3.4-1.1,6.4-3.3,8.4-6.2c2.1-3.3,3.2-7.1,3.1-11c0.1-4.1-1-8.2-3.3-11.6c-2.2-3.2-5.4-5.6-9.2-6.6
				c-4.8-1.1-9.7-1.5-14.6-1.3h-3.3L597.8,204.7z"/>
			<path class="st0" d="M640.5,162.1h27v4.6h-22.3v14.7h22.1v4.6h-22.1v18.6h22.1v4.6h-26.7L640.5,162.1L640.5,162.1z"/>
			<path class="st0" d="M690.6,162.1h27v4.6h-22.3v14.7h22.1v4.6h-22.1v18.6h22.1v4.6h-26.8V162.1z"/>
			<path class="st0" d="M719.2,200.4l4-2.4c2.8,5.2,6.1,7.8,9.8,7.8c1.6,0,3.1-0.4,4.5-1.1c1.3-0.7,2.4-1.7,3.2-3
				c0.7-1.2,1.1-2.5,1.1-3.9c0-1.7-0.6-3.3-1.6-4.7c-2.3-2.9-5-5.4-8.1-7.6c-2.7-1.8-5.2-4-7.4-6.4c-1.6-2.1-2.5-4.6-2.5-7.2
				c0-2,0.5-3.9,1.5-5.6c1-1.7,2.4-3.1,4.1-4c1.8-1,3.8-1.5,5.8-1.5c2.2,0,4.3,0.6,6.2,1.6c2.4,1.6,4.5,3.7,6.1,6.1l-3.8,2.9
				c-1.2-1.8-2.8-3.4-4.5-4.6c-1.2-0.7-2.7-1.1-4.1-1.1c-1.7-0.1-3.4,0.6-4.7,1.7c-1.2,1.1-1.9,2.6-1.8,4.2c0,1,0.2,2.1,0.6,3
				c0.6,1.2,1.4,2.2,2.3,3.1c0.6,0.6,2.6,2.2,6.1,4.7c3.2,2.2,6.1,4.9,8.4,8c1.4,2.1,2.2,4.5,2.3,7.1c0,3.4-1.4,6.6-3.9,8.9
				c-2.5,2.5-5.9,3.9-9.5,3.8c-2.8,0-5.5-0.8-7.8-2.3C722.9,206.1,720.7,203.4,719.2,200.4z"/>
			<path class="st0" d="M750.4,166.7v-4.6h25.7v4.6h-10.5v42.5h-4.8v-42.5H750.4z"/>
			<path class="st0" d="M781.5,162.1h4.7v28.4c0,2.1,0,4.2,0.2,6.3c0.2,1.7,0.7,3.3,1.6,4.7c1,1.4,2.4,2.5,3.9,3.1
				c1.7,0.8,3.5,1.3,5.3,1.3c1.5,0,3.1-0.3,4.5-1c1.4-0.6,2.7-1.6,3.7-2.8c1-1.3,1.7-2.7,2.1-4.3c0.4-2.4,0.6-4.9,0.5-7.4v-28.5h4.7
				v28.4c0.1,3.4-0.3,6.9-1.2,10.2c-0.9,2.7-2.6,5.1-4.9,6.8c-2.6,2-5.7,3-9,2.9c-3.5,0.1-6.9-0.9-9.8-2.7c-2.6-1.7-4.6-4.2-5.5-7.2
				c-0.7-3.3-1-6.6-0.9-9.9L781.5,162.1z"/>
			<path class="st0" d="M822.7,209.2v-47.1h9.8c5.2-0.2,10.4,0.3,15.4,1.7c4.4,1.5,8.2,4.4,10.7,8.3c2.7,4.2,4,9.1,3.9,14.1
				c0.1,4.4-1,8.7-3.1,12.5c-1.8,3.4-4.6,6.1-7.9,7.9c-4.3,1.9-9,2.8-13.7,2.6L822.7,209.2z M827.2,204.7h5.5
				c4.6,0.2,9.1-0.2,13.5-1.2c3.4-1.1,6.4-3.3,8.3-6.2c2.1-3.3,3.2-7.1,3.1-11c0.1-4.1-1-8.2-3.3-11.6c-2.2-3.2-5.4-5.6-9.2-6.6
				c-4.8-1.1-9.7-1.5-14.6-1.3h-3.3V204.7z"/>
			<path class="st0" d="M869.2,162.1h4.7v47.1h-4.7V162.1z"/>
			<path class="st0" d="M905.5,160.9c6.7-0.2,13.2,2.4,17.9,7.1c9.7,9.7,9.6,25.4,0,35c-4.6,4.6-10.9,7.2-17.5,7.2
				c-6.6,0.1-13-2.4-17.7-7.2c-4.7-4.5-7.3-10.8-7.2-17.4c0-4.4,1.1-8.6,3.3-12.4C888.6,165.7,896.7,160.9,905.5,160.9L905.5,160.9z
				 M905.7,165.5c-7.1,0.1-13.7,3.9-17.2,10.1c-1.8,3.1-2.7,6.7-2.6,10.3c-0.1,11,8.8,19.9,19.7,20h0.1c3.6,0,7.1-0.9,10.1-2.7
				c3.1-1.7,5.6-4.3,7.4-7.4c1.8-3.1,2.7-6.7,2.6-10.3c0-3.6-0.9-7.1-2.6-10.1c-1.7-3.1-4.3-5.6-7.4-7.4
				C912.7,166.3,909.2,165.4,905.7,165.5z"/>
			<path class="st0" d="M933.6,200.4l4-2.4c2.8,5.2,6.1,7.8,9.8,7.8c1.6,0,3.1-0.4,4.4-1.1c1.3-0.7,2.4-1.7,3.2-3
				c0.7-1.2,1.1-2.5,1.1-3.9c0-1.7-0.6-3.3-1.6-4.7c-2.3-2.9-5-5.4-8.1-7.6c-2.7-1.8-5.2-4-7.4-6.4c-1.6-2.1-2.5-4.6-2.5-7.2
				c0-2,0.5-3.9,1.5-5.6c1-1.7,2.4-3.1,4.2-4c1.8-1,3.8-1.5,5.8-1.5c2.2,0,4.3,0.6,6.2,1.6c2.4,1.6,4.5,3.7,6.1,6.1l-3.8,2.9
				c-1.2-1.8-2.7-3.4-4.5-4.6c-1.2-0.7-2.7-1.1-4.1-1.1c-1.7-0.1-3.4,0.6-4.7,1.7c-1.2,1.1-1.9,2.6-1.8,4.2c0,1,0.2,2.1,0.6,3
				c0.6,1.2,1.4,2.2,2.4,3.1c0.6,0.6,2.6,2.2,6.1,4.7c3.2,2.2,6.1,4.9,8.4,8c1.4,2.1,2.2,4.5,2.3,7.1c0,3.4-1.4,6.6-3.9,8.9
				c-2.5,2.5-5.9,3.9-9.5,3.8c-2.8,0-5.5-0.8-7.8-2.3C937.2,206.1,935,203.4,933.6,200.4z"/>
		</g>
	</g>
</g>
</svg>
