<svg xmlns="http://www.w3.org/2000/svg" viewBox="0 0 24 24"><defs><style>.cls-1{fill:#fff;}</style></defs><title>twitter</title><g id="Capa_2" data-name="Capa 2"><g id="Capa_1-2" data-name="Capa 1"><path id="twitter-4" class="cls-1" d="M12,0A12,12,0,1,0,24,12,12,12,0,0,0,12,0Zm6.07,9.64A8.17,8.17,0,0,1,5.5,16.9a5.76,5.76,0,0,0,4.25-1.19,2.86,2.86,0,0,1-2.68-2,3,3,0,0,0,1.3,0,2.89,2.89,0,0,1-2.31-2.86,2.75,2.75,0,0,0,1.3.36,2.87,2.87,0,0,1-.89-3.83,8.2,8.2,0,0,0,5.92,3,2.88,2.88,0,0,1,4.9-2.62A5.74,5.74,0,0,0,19.11,7a2.89,2.89,0,0,1-1.26,1.59,5.67,5.67,0,0,0,1.65-.45A5.75,5.75,0,0,1,18.07,9.64Z"/></g></g></svg>